<svg width="95" height="32" viewBox="0 0 95 32" fill="none" xmlns="http://www.w3.org/2000/svg">
    <path d="M90 0H31V32H90C92.7614 32 95 29.7614 95 27V5C95 2.23858 92.7614 0 90 0Z" fill="#0F1418" />
    <path d="M31 0H5C2.23858 0 0 2.23858 0 5V27C0 29.7614 2.23858 32 5 32H31V0Z" fill="#724CB3" />
    <g clip-path="url(#clip0)">
        <path
            d="M20.6295 19.608C21.5151 19.5238 22.187 18.823 22.1565 17.9818C22.126 17.1408 21.3624 16.4679 20.4462 16.4679H20.3852C19.4383 16.4959 18.7053 17.2249 18.7359 18.094C18.7665 18.5145 18.9497 18.879 19.2245 19.1313C18.1862 21.0098 16.598 22.3836 14.2158 23.5331C12.5972 24.3181 10.9174 24.5985 9.23772 24.4022C7.86334 24.234 6.79441 23.6733 6.12241 22.748C5.14516 21.3743 5.05356 19.8883 5.87819 18.4024C6.4585 17.337 7.37462 16.552 7.95494 16.1594C7.83278 15.795 7.6495 15.1782 7.55791 14.7297C3.12944 17.6735 3.58759 21.6546 4.93141 23.5331C5.93922 24.9349 7.9855 25.8041 10.2455 25.8041C10.8563 25.8041 11.4671 25.7479 12.078 25.6078C15.9873 24.9069 18.9498 22.7761 20.6295 19.608V19.608ZM26.0047 16.1315C23.6836 13.6362 20.263 12.2624 16.3537 12.2624H15.8651C15.5902 11.7578 15.0099 11.4213 14.3686 11.4213H14.3074C13.3608 11.4494 12.6278 12.1783 12.6583 13.0475C12.6888 13.8885 13.4523 14.5614 14.3686 14.5614H14.4296C15.1015 14.5334 15.6818 14.1409 15.9261 13.6081H16.4759C18.797 13.6081 20.9959 14.2249 22.9812 15.4305C24.5082 16.3557 25.6077 17.5613 26.2185 19.0192C26.7377 20.1967 26.7071 21.3462 26.1573 22.3275C25.3023 23.8134 23.8668 24.6265 21.9733 24.6265C20.7516 24.6265 19.5911 24.29 18.9802 24.0377C18.6443 24.3181 18.0334 24.7666 17.6058 25.0471C18.9192 25.6078 20.263 25.9162 21.5457 25.9162C24.4776 25.9162 26.6461 24.4302 27.4707 22.9443C28.3563 21.3182 28.2952 18.5145 26.0047 16.1315V16.1315ZM10.4898 20.0845C10.5204 20.9256 11.2839 21.5984 12.2001 21.5984H12.2613C13.208 21.5705 13.941 20.8415 13.9104 19.9724C13.8799 19.1312 13.1163 18.4584 12.2001 18.4584H12.1391C12.078 18.4584 11.9863 18.4584 11.9253 18.4864C10.6731 16.5799 10.1539 14.5053 10.3372 12.2624C10.4593 10.5802 11.0702 9.12225 12.1391 7.91665C13.0248 6.8793 14.735 6.37465 15.8957 6.34668C19.1329 6.29057 20.5072 9.99135 20.5989 11.4773C20.9959 11.5614 21.6678 11.7577 22.126 11.8979C21.7594 7.35606 18.7053 5.00098 15.7735 5.00098C13.0247 5.00098 10.4898 6.82336 9.48194 9.51485C8.07709 13.1035 8.99331 16.552 10.7036 19.2715C10.551 19.4677 10.4593 19.7762 10.4898 20.0846V20.0845Z"
            fill="white" />
    </g>
    <path
        d="M90 0H5C2.23858 0 0 2.23858 0 5V27C0 29.7614 2.23857 32 5 32H90C92.7614 32 95 29.7614 95 27V5C95 2.23858 92.7614 0 90 0Z"
        fill="url(#paint0_linear)" />
    <path
        d="M49.098 17.686H46.5931V22H45.1796V11.3359H48.7098C49.911 11.3359 50.8338 11.6094 51.4784 12.1562C52.1278 12.7031 52.4525 13.499 52.4525 14.5439C52.4525 15.208 52.2718 15.7866 51.9105 16.2798C51.5541 16.7729 51.056 17.1416 50.4164 17.3857L52.9212 21.9121V22H51.4125L49.098 17.686ZM46.5931 16.5361H48.7538C49.452 16.5361 50.0062 16.3555 50.4164 15.9941C50.8314 15.6328 51.0389 15.1494 51.0389 14.5439C51.0389 13.8848 50.8412 13.3794 50.4457 13.0278C50.055 12.6763 49.4886 12.498 48.7464 12.4932H46.5931V16.5361ZM57.9499 22.1465C56.8757 22.1465 56.0016 21.7949 55.3278 21.0918C54.654 20.3838 54.3171 19.439 54.3171 18.2573V18.0083C54.3171 17.2222 54.466 16.5215 54.7638 15.9062C55.0666 15.2861 55.4865 14.8027 56.0236 14.4561C56.5656 14.1045 57.1515 13.9287 57.7814 13.9287C58.8117 13.9287 59.6125 14.2681 60.1838 14.9468C60.7551 15.6255 61.0407 16.5972 61.0407 17.8618V18.4258H55.6721C55.6916 19.207 55.9186 19.8394 56.3532 20.3228C56.7927 20.8013 57.3493 21.0405 58.0231 21.0405C58.5016 21.0405 58.9069 20.9429 59.2389 20.7476C59.571 20.5522 59.8615 20.2935 60.1105 19.9712L60.9382 20.6157C60.2741 21.6362 59.278 22.1465 57.9499 22.1465ZM57.7814 15.042C57.2346 15.042 56.7756 15.2422 56.4045 15.6426C56.0334 16.0381 55.8039 16.5947 55.716 17.3125H59.6857V17.21C59.6467 16.5215 59.4611 15.9893 59.1291 15.6133C58.7971 15.2324 58.3478 15.042 57.7814 15.042ZM62.4658 17.9717C62.4658 16.7559 62.7539 15.7793 63.3301 15.042C63.9062 14.2998 64.6606 13.9287 65.5933 13.9287C66.521 13.9287 67.2559 14.2461 67.7979 14.8809V10.75H69.1528V22H67.9077L67.8418 21.1504C67.2998 21.8145 66.5454 22.1465 65.5786 22.1465C64.6606 22.1465 63.9111 21.7705 63.3301 21.0186C62.7539 20.2666 62.4658 19.2852 62.4658 18.0742V17.9717ZM63.8208 18.1255C63.8208 19.0239 64.0063 19.7271 64.3774 20.2349C64.7485 20.7427 65.2612 20.9966 65.9155 20.9966C66.7749 20.9966 67.4023 20.6108 67.7979 19.8394V16.1992C67.3926 15.4521 66.77 15.0786 65.9302 15.0786C65.2661 15.0786 64.7485 15.335 64.3774 15.8477C64.0063 16.3604 63.8208 17.1196 63.8208 18.1255ZM76.3348 21.2163C75.8074 21.8364 75.0335 22.1465 74.013 22.1465C73.1683 22.1465 72.5238 21.9023 72.0794 21.4141C71.64 20.9209 71.4178 20.1934 71.4129 19.2314V14.0752H72.7679V19.1948C72.7679 20.396 73.2562 20.9966 74.2327 20.9966C75.2679 20.9966 75.9564 20.6108 76.2982 19.8394V14.0752H77.6531V22H76.3641L76.3348 21.2163ZM82.5573 16.9683L84.3151 14.0752H85.8971L83.3043 17.9937L85.9777 22H84.4103L82.5792 19.0337L80.7482 22H79.1735L81.8468 17.9937L79.254 14.0752H80.8214L82.5573 16.9683Z"
        fill="white" />
    <defs>
        <linearGradient id="paint0_linear" x1="0" y1="0" x2="0" y2="32" gradientUnits="userSpaceOnUse">
            <stop stop-color="#BBBBBB" stop-opacity="0.1" />
            <stop offset="1" stop-opacity="0.1" />
        </linearGradient>
        <clipPath id="clip0">
            <rect width="24" height="21" fill="white" transform="translate(4 5)" />
        </clipPath>
    </defs>
</svg>